<svg xmlns="http://www.w3.org/2000/svg" width="120" height="24" viewBox="0 0 120 24" fill="none">
  <g clip-path="url(#clip0_1_22)">
    <path d="M19.2194 0C21.3594 0.370265 23.4404 1.02423 25.4074 1.94461C28.8021 7.01414 30.4887 12.7317 29.8659 19.3266C27.2686 21.2686 24.7493 22.4468 22.2722 23.2179C21.6568 22.3724 21.1132 21.477 20.6468 20.5411C21.5371 20.2024 22.3952 19.7847 23.2109 19.2928C22.9975 19.1328 22.7882 18.9673 22.5834 18.7964C17.7073 21.105 12.345 21.105 7.40999 18.7964C7.20703 18.9675 6.99703 19.1339 6.78234 19.2928C7.59679 19.7834 8.45339 20.2002 9.34195 20.5385C8.87525 21.4743 8.33158 22.3698 7.71656 23.2155C5.24179 22.4445 2.72484 21.2663 0.127495 19.3266C-0.403599 13.6378 0.657885 7.86703 4.57406 1.9493C6.54208 1.02598 8.62489 0.370387 10.7669 0C11.0358 0.481875 11.3543 1.13016 11.569 1.64578C13.8337 1.29891 16.1196 1.29891 18.4268 1.64578C18.6632 1.08423 18.9278 0.534936 19.2194 0ZM78.735 7.42664C80.3862 7.42664 81.7568 7.78055 82.8469 8.48906V11.5758C82.4625 11.3058 82.0139 11.0866 81.502 10.9179C80.9901 10.7491 80.4426 10.6648 79.8576 10.6648C78.8339 10.6648 78.0342 10.8553 77.4562 11.2383C76.878 11.6215 76.5883 12.1202 76.5883 12.7395C76.5883 13.3465 76.8687 13.8431 77.4302 14.2334C77.992 14.6213 78.8055 14.8165 79.8743 14.8165C80.4239 14.8165 80.9665 14.7345 81.502 14.5732C82.0352 14.4091 82.4953 14.2092 82.8797 13.9732V16.9584C81.6696 17.7007 80.2659 18.0717 78.6687 18.0717C77.3243 18.067 76.1775 17.8308 75.2316 17.3585C74.2858 16.8863 73.5708 16.2452 73.0943 15.4357C72.6178 14.6262 72.3771 13.7154 72.3771 12.7034C72.3771 11.6913 72.6248 10.7855 73.1201 9.98789C73.6155 9.19031 74.3421 8.56383 75.3002 8.1082C76.2576 7.65305 77.4019 7.42664 78.735 7.42664ZM66.3326 7.4243C67.2572 7.4243 68.1042 7.52531 68.876 7.72781C69.6471 7.93031 70.2841 8.18813 70.7916 8.50359V11.1518C70.2722 10.8361 69.6776 10.5879 68.9986 10.3999C68.3173 10.2142 67.6141 10.121 66.908 10.1229C65.8725 10.1229 65.3562 10.3034 65.3562 10.6627C65.3562 10.8314 65.4363 10.9566 65.5966 11.0409C65.7569 11.1253 66.0518 11.212 66.4788 11.3034L68.13 11.6072C69.2086 11.7975 70.0127 12.1322 70.541 12.6094C71.0698 13.0866 71.3337 13.7925 71.3337 14.7274C71.3337 15.7516 70.8977 16.5635 70.0221 17.1659C69.1469 17.7682 67.9059 18.0694 66.2972 18.0694C65.351 18.067 64.4315 17.9489 63.5395 17.7127C62.6477 17.4766 61.8431 17.1345 61.1285 16.6838V13.8844C61.6687 14.3109 62.393 14.6625 63.3012 14.9398C64.2094 15.2145 65.0871 15.3518 65.9362 15.3518C66.3323 15.3518 66.6323 15.2986 66.8351 15.1927C67.038 15.0867 67.1398 14.959 67.1398 14.812C67.1398 14.6433 67.0854 14.5036 66.9743 14.3902C66.8634 14.277 66.6485 14.183 66.3305 14.1035L64.3488 13.6481C63.214 13.3784 62.4094 13.0048 61.9308 12.5255C61.4517 12.0483 61.2133 11.4218 61.2133 10.6458C61.2133 9.99305 61.421 9.4268 61.841 8.94234C62.2584 8.45813 62.853 8.08453 63.6244 7.82203C64.3959 7.55719 65.2969 7.4243 66.3326 7.4243ZM120 5.58586V17.7295H115.954V15.5203C115.612 16.3516 115.093 16.9852 114.395 17.419C113.696 17.8502 112.833 18.0673 111.809 18.0673C110.894 18.0673 110.097 17.8406 109.414 17.3852C108.733 16.9298 108.207 16.3059 107.837 15.513C107.469 14.7204 107.282 13.8241 107.282 12.8217C107.27 11.7881 107.466 10.8605 107.869 10.0388C108.271 9.21703 108.839 8.57625 109.57 8.11594C110.302 7.65586 111.137 7.42453 112.073 7.42453C113.968 7.42453 115.249 8.25047 115.919 9.90047L115.954 9.98789V5.58586H120ZM90.3438 7.42172C91.6533 7.42172 92.783 7.64578 93.7291 8.09648C94.6751 8.54695 95.3972 9.16383 95.8924 9.9518C96.3881 10.7398 96.6354 11.6433 96.6354 12.6673C96.6354 13.6793 96.3881 14.595 95.8924 15.4165C95.3972 16.2382 94.6727 16.8837 93.7198 17.3562C92.7665 17.8284 91.6413 18.0645 90.3417 18.0645C89.0416 18.0645 87.9164 17.8308 86.9658 17.3585C86.0126 16.8863 85.2862 16.2405 84.7858 15.4188C84.2859 14.5973 84.0335 13.6816 84.0335 12.6696C84.0335 11.6578 84.2833 10.7541 84.7858 9.96141C85.2881 9.16875 86.0102 8.54695 86.9585 8.09648C87.9044 7.64578 89.0346 7.42172 90.3438 7.42172ZM59.3219 10.1878V17.7825H55.2883V10.1878C56.5242 10.7323 58.0577 10.7564 59.3219 10.1878ZM105.055 7.64344C105.638 7.64344 106.138 7.77844 106.558 8.0482V11.6913C106.138 11.4094 105.595 11.2697 104.923 11.2697C104.043 11.2697 103.364 11.542 102.892 12.0865C102.418 12.6312 102.181 13.4791 102.181 14.6262V17.7295H98.1358V7.86281H102.099V10.9999C102.318 9.85289 102.675 9.00727 103.166 8.46023C103.654 7.91578 104.286 7.64344 105.055 7.64344ZM46.7449 5.92313C48.2974 5.92313 49.609 6.17133 50.6848 6.66516C51.7582 7.15922 52.5628 7.84828 53.096 8.73C53.6287 9.61195 53.8976 10.6214 53.8976 11.7588C53.8976 12.8721 53.6194 13.8816 53.0627 14.7851C52.5058 15.6912 51.6588 16.407 50.5198 16.9343C49.3805 17.4621 47.9693 17.7272 46.2827 17.7272H40.3048V5.92313H46.7449ZM10.0144 9.69094C8.50687 9.69094 7.31788 11.0766 7.31788 12.7608C7.31788 14.445 8.53288 15.828 10.0144 15.828C11.5219 15.828 12.7132 14.445 12.7109 12.7608C12.7366 11.074 11.5219 9.69094 10.0144 9.69094ZM19.9791 9.69094C18.4716 9.69094 17.2826 11.0766 17.2826 12.7608C17.2826 14.445 18.4976 15.828 19.9791 15.828C21.4866 15.828 22.6755 14.445 22.6755 12.7608C22.7013 11.074 21.4866 9.69094 19.9791 9.69094ZM90.3417 10.53C89.6362 10.53 89.0841 10.7299 88.6807 11.13C88.2799 11.5301 88.079 12.0649 88.079 12.7397C88.079 13.4142 88.2797 13.9563 88.6807 14.366C89.0819 14.7757 89.636 14.9829 90.3417 14.9829C91.0348 14.9805 91.5825 14.7757 91.9833 14.366C92.3848 13.9563 92.5873 13.4145 92.5873 12.7395C92.5873 12.0649 92.3866 11.5277 91.9833 11.13C91.5825 10.7299 91.0348 10.53 90.3417 10.53ZM113.725 10.5806C113.043 10.5806 112.498 10.7805 112.09 11.1806C111.682 11.5807 111.479 12.0987 111.479 12.7397C111.479 13.3805 111.682 13.9034 112.09 14.3081C112.498 14.7129 113.036 14.9152 113.708 14.9152C114.39 14.9128 114.937 14.7082 115.35 14.2988C115.763 13.8888 115.968 13.3566 115.968 12.7059C115.968 12.0769 115.768 11.5638 115.367 11.1708C114.965 10.7782 114.416 10.5806 113.725 10.5806ZM46.4501 8.92524H44.4354V14.7274H46.2166C47.2619 14.7274 48.0663 14.46 48.6276 13.9275C49.1892 13.3924 49.47 12.6649 49.47 11.742C49.47 10.8865 49.2197 10.2047 48.7198 9.69399C48.2196 9.18305 47.4623 8.92524 46.4501 8.92524ZM57.307 5.2125C58.4208 5.2125 59.3241 6.04078 59.3241 7.06289C59.3241 8.08477 58.4208 8.91352 57.307 8.91352C56.1928 8.91352 55.2898 8.085 55.2898 7.06289C55.2898 6.04102 56.1928 5.2125 57.307 5.2125Z" fill="#F8F8F8"/>
  </g>
  <defs>
    <clipPath id="clip0_1_22">
      <rect width="120" height="23.4375" fill="white"/>
    </clipPath>
  </defs>
</svg>